<svg id="Layer_1" data-name="Layer 1" xmlns="http://www.w3.org/2000/svg" viewBox="0 0 600 600"><defs><style>.cls-1{fill:none;}.cls-2{fill:#fff;}.cls-3{fill:#8f00ff;}</style></defs><rect class="cls-1" width="600" height="600"/><rect class="cls-1" width="600" height="600"/><path class="cls-2" d="M24.77,310.37a10.78,10.78,0,0,1,2.42-5.58A35.88,35.88,0,0,1,33,299.4l86.37-62a5,5,0,0,1,2.59-1,4.14,4.14,0,0,1,3.5,1.15,4.09,4.09,0,0,1,1,3.57l-2,13.35a12,12,0,0,1-2.87,6.1,32.55,32.55,0,0,1-6.08,5.42l-69,49.73L105,354.05q7.18,4.5,6.22,10.19l-.9,9.1a6.15,6.15,0,0,1-2.09,3.85,5.78,5.78,0,0,1-3.73,1.79,4,4,0,0,1-2.48-.51l-72.63-48a12.76,12.76,0,0,1-4.74-4.22,9.17,9.17,0,0,1-1.21-5.5Z"/><path class="cls-2" d="M575.16,290.64a10.66,10.66,0,0,1-2.17,5.81,32.42,32.42,0,0,1-5.86,5.15l-86.37,62a6.45,6.45,0,0,1-2.82,1,4.13,4.13,0,0,1-3.5-1.16,4.54,4.54,0,0,1-.8-3.59l1.53-13.06q.94-5.94,9.19-11.54l69.71-49.8-59-39.21q-7.19-4.49-6.47-10.16l1.22-8.4a5.41,5.41,0,0,1,1.61-3.8,6.75,6.75,0,0,1,4-1.82,5,5,0,0,1,2.71.5l72.64,48q5.38,3.43,5.75,7.55a7.19,7.19,0,0,1,0,2.2Z"/><path class="cls-3" d="M448.55,197.61q3.7-7.65,11.41-8.32l8.43-.74c2.89-.26,4.46,1.07,4.72,4a6.59,6.59,0,0,1-.69,3.24L366.84,402.39q-3.69,7.65-11.41,8.32l-8.43.74c-2.89.26-4.46-1.07-4.72-4a6.59,6.59,0,0,1,.69-3.24Z"/><rect class="cls-3" x="164.19" y="221.61" width="160.92" height="156.79" rx="15"/><path class="cls-2" d="M261.05,255.55v64.77q0,16.14-10.09,25.53t-27.59,9.39q-17.22,0-27.35-9.12t-10.34-25.06V255.55h20.26v64.91q0,9.66,4.63,14.08t12.8,4.42q17.08,0,17.35-18V255.55Z"/><path class="cls-2" d="M299.21,353.89H279V255.55h20.26Z"/></svg>