<svg id="Layer_1" data-name="Layer 1" xmlns="http://www.w3.org/2000/svg" viewBox="0 0 468 135.13"><defs><style>.cls-1{fill:none;}.cls-2{fill:#8f00ff;}.cls-3{fill:#fff;}</style></defs><rect class="cls-1" width="468" height="135.13"/><path d="M6.85,76a5.64,5.64,0,0,1,1.25-2.9,18.25,18.25,0,0,1,3-2.79L55.89,38.21a2.63,2.63,0,0,1,1.34-.49,2.12,2.12,0,0,1,1.81.6,2.08,2.08,0,0,1,.54,1.84l-1,6.92a6.29,6.29,0,0,1-1.49,3.17,17,17,0,0,1-3.15,2.8L18.16,78.82,48.44,98.66c2.49,1.56,3.56,3.31,3.23,5.28l-.47,4.72a3.17,3.17,0,0,1-1.08,2,3,3,0,0,1-1.94.93,2,2,0,0,1-1.28-.27L9.26,86.43a6.48,6.48,0,0,1-2.45-2.18,4.76,4.76,0,0,1-.63-2.86Z"/><path d="M462.07,65.8a5.45,5.45,0,0,1-1.12,3,16.39,16.39,0,0,1-3,2.67l-44.76,32.13a3.27,3.27,0,0,1-1.46.5,2.12,2.12,0,0,1-1.81-.6,2.36,2.36,0,0,1-.42-1.86l.8-6.77q.48-3.07,4.76-6l36.12-25.8L420.56,42.78q-3.72-2.33-3.35-5.27l.63-4.35a2.83,2.83,0,0,1,.84-2,3.43,3.43,0,0,1,2.05-.94,2.61,2.61,0,0,1,1.41.25l37.64,24.89q2.81,1.77,3,3.91a3.72,3.72,0,0,1,0,1.14Z"/><path class="cls-2" d="M396.46,17.59a7,7,0,0,1,5.91-4.31l4.37-.39A2,2,0,0,1,409.19,15a3.39,3.39,0,0,1-.36,1.67L354.12,123.71A7,7,0,0,1,348.2,128l-4.37.38a2,2,0,0,1-2.44-2.06,3.45,3.45,0,0,1,.36-1.68Z"/><rect class="cls-2" x="249.1" y="30.03" width="83.39" height="81.25" rx="15"/><path d="M110.29,84.49a5.41,5.41,0,0,0-2.1-4.57,27.65,27.65,0,0,0-7.56-3.36A53,53,0,0,1,92,73.08q-8.68-4.69-8.68-12.63a12.31,12.31,0,0,1,2.32-7.37A15.13,15.13,0,0,1,92.32,48a25.18,25.18,0,0,1,9.78-1.82,22.89,22.89,0,0,1,9.73,2,15.47,15.47,0,0,1,6.63,5.58A14.57,14.57,0,0,1,120.82,62h-10.5a6.86,6.86,0,0,0-2.2-5.44,9,9,0,0,0-6.19-1.94,9.72,9.72,0,0,0-6,1.62,5.15,5.15,0,0,0-2.13,4.29,4.91,4.91,0,0,0,2.5,4.17,28.22,28.22,0,0,0,7.37,3.15q9,2.69,13,6.68a13.3,13.3,0,0,1,4.09,9.94,12.26,12.26,0,0,1-5,10.38q-5,3.77-13.48,3.76a26.09,26.09,0,0,1-10.7-2.15,17,17,0,0,1-7.37-5.9,15.12,15.12,0,0,1-2.54-8.68H92.27q0,8.43,10.07,8.44a9.78,9.78,0,0,0,5.85-1.53A4.94,4.94,0,0,0,110.29,84.49Z"/><path d="M149.21,97.86a11.13,11.13,0,0,1-1-3.39,12.22,12.22,0,0,1-9.55,4.09,13.41,13.41,0,0,1-9.22-3.22,10.35,10.35,0,0,1-3.66-8.12A10.72,10.72,0,0,1,130.22,78q4.47-3.23,12.9-3.25h4.65V72.56a6.28,6.28,0,0,0-1.34-4.2,5.32,5.32,0,0,0-4.26-1.58,6,6,0,0,0-4,1.23,4.14,4.14,0,0,0-1.46,3.36H126.6a10.15,10.15,0,0,1,2-6.09,13.47,13.47,0,0,1,5.74-4.4,20.94,20.94,0,0,1,8.33-1.59q7,0,11.11,3.52t4.11,9.89V89.11q0,5.39,1.51,8.16v.59Zm-8.37-7a8.75,8.75,0,0,0,4.13-1,6.55,6.55,0,0,0,2.8-2.68V80.64H144q-7.59,0-8.08,5.25l0,.6a4.07,4.07,0,0,0,1.33,3.11A5.16,5.16,0,0,0,140.84,90.83Z"/><path d="M175,60l.32,4.38a13.2,13.2,0,0,1,10.88-5.08q6,0,9,3.54t3,10.57V97.86H188.06V73.64c0-2.15-.47-3.7-1.4-4.67s-2.49-1.45-4.66-1.45a7,7,0,0,0-6.4,3.64v26.7H165.48V60Z"/><path d="M226.35,87.4a3.29,3.29,0,0,0-1.84-2.93,21,21,0,0,0-5.9-1.9q-13.5-2.83-13.51-11.48a10.41,10.41,0,0,1,4.19-8.42q4.17-3.37,10.93-3.38,7.22,0,11.53,3.4a10.68,10.68,0,0,1,4.33,8.82H226a4.86,4.86,0,0,0-1.4-3.59,5.89,5.89,0,0,0-4.37-1.42,6.07,6.07,0,0,0-4,1.16,3.66,3.66,0,0,0-1.4,2.94,3.11,3.11,0,0,0,1.6,2.71,16.29,16.29,0,0,0,5.37,1.78,45.07,45.07,0,0,1,6.37,1.7q8,2.94,8,10.19a9.89,9.89,0,0,1-4.44,8.38q-4.45,3.19-11.48,3.2a20.09,20.09,0,0,1-8.46-1.7A14.17,14.17,0,0,1,206,92.21a10.81,10.81,0,0,1-2.1-6.39h9.59a5.29,5.29,0,0,0,2,4.13,7.87,7.87,0,0,0,5,1.44,7.29,7.29,0,0,0,4.39-1.11A3.42,3.42,0,0,0,226.35,87.4Z"/><path class="cls-3" d="M299.3,47.62V81.18q0,8.37-5.24,13.23t-14.29,4.87q-8.92,0-14.18-4.73t-5.35-13V47.62h10.5V81.25c0,3.34.79,5.77,2.39,7.3a9.21,9.21,0,0,0,6.64,2.29q8.85,0,9-9.31V47.62Z"/><path class="cls-3" d="M319.07,98.58h-10.5v-51h10.5Z"/></svg>