<svg id="Layer_1" data-name="Layer 1" xmlns="http://www.w3.org/2000/svg" viewBox="0 0 600 600"><defs><style>.cls-1{fill:none;}.cls-2{fill:#8f00ff;}.cls-3{fill:#fff;}</style></defs><rect class="cls-1" width="600" height="600"/><rect class="cls-1" width="600" height="600"/><path d="M24.77,310.37a10.72,10.72,0,0,1,2.42-5.58A35.76,35.76,0,0,1,33,299.4l86.37-62a5,5,0,0,1,2.59-1,3.93,3.93,0,0,1,4.5,4.72l-2,13.35a12,12,0,0,1-2.87,6.1,32.33,32.33,0,0,1-6.08,5.42l-69,49.73L105,354.05q7.19,4.5,6.22,10.19l-.9,9.1a6.11,6.11,0,0,1-2.09,3.85A5.79,5.79,0,0,1,104.5,379a4,4,0,0,1-2.48-.51l-72.63-48a12.84,12.84,0,0,1-4.74-4.22,9.2,9.2,0,0,1-1.21-5.5Z"/><path d="M575.16,290.64a10.67,10.67,0,0,1-2.17,5.81,32.26,32.26,0,0,1-5.86,5.15l-86.37,62a6.46,6.46,0,0,1-2.82,1,4.16,4.16,0,0,1-3.5-1.16,4.55,4.55,0,0,1-.8-3.59l1.53-13.06q.94-5.94,9.19-11.54l69.71-49.8-59-39.21q-7.19-4.49-6.47-10.16l1.22-8.4a5.38,5.38,0,0,1,1.61-3.8,6.69,6.69,0,0,1,4-1.82,5,5,0,0,1,2.71.5l72.64,48q5.38,3.44,5.75,7.55a7.37,7.37,0,0,1,0,2.2Z"/><path class="cls-2" d="M448.55,197.61q3.7-7.65,11.41-8.32l8.43-.74q4.33-.39,4.72,4a6.6,6.6,0,0,1-.69,3.24L366.84,402.39q-3.69,7.65-11.41,8.32l-8.43.74q-4.33.39-4.72-4a6.6,6.6,0,0,1,.69-3.24Z"/><rect class="cls-2" x="164.19" y="221.61" width="160.92" height="156.79" rx="15"/><path class="cls-3" d="M261.05,255.55v64.77q0,16.14-10.09,25.53t-27.59,9.39q-17.22,0-27.35-9.12t-10.34-25.06V255.55h20.26v64.91q0,9.66,4.63,14.08t12.8,4.42q17.08,0,17.35-18V255.55Z"/><path class="cls-3" d="M299.21,353.89H279V255.55h20.26Z"/></svg>