<svg id="Layer_1" data-name="Layer 1" xmlns="http://www.w3.org/2000/svg" viewBox="0 0 501.66 129.19"><defs><style>.cls-1{fill:#8f00ff;}.cls-2,.cls-3{font-size:80.14px;font-family:Roboto-Bold, Roboto;font-weight:700;}.cls-3{fill:#fff;}</style></defs><path d="M45.34,312.41a6.32,6.32,0,0,1,1.41-3.23,20.49,20.49,0,0,1,3.38-3.12l50-35.92a3,3,0,0,1,1.5-.56,2.42,2.42,0,0,1,2,.67,2.37,2.37,0,0,1,.6,2.07l-1.15,7.73a7.11,7.11,0,0,1-1.66,3.54A19.16,19.16,0,0,1,98,286.73L58,315.54l33.86,22.18q4.17,2.61,3.61,5.91l-.53,5.27a3.53,3.53,0,0,1-1.21,2.23,3.35,3.35,0,0,1-2.16,1,2.24,2.24,0,0,1-1.43-.3L48,324.05a7.56,7.56,0,0,1-2.74-2.44,5.3,5.3,0,0,1-.7-3.19Z" transform="translate(-44.58 -250.42)"/><path d="M545.44,309.59a6.21,6.21,0,0,1-1.25,3.37,18.73,18.73,0,0,1-3.4,3l-50,35.92a3.75,3.75,0,0,1-1.64.57,2.43,2.43,0,0,1-2-.67,2.67,2.67,0,0,1-.46-2.08l.89-7.57c.36-2.3,2.14-4.52,5.32-6.69l40.39-28.85L499,283.85c-2.77-1.73-4-3.7-3.74-5.89l.7-4.87a3.17,3.17,0,0,1,.93-2.2,4,4,0,0,1,2.3-1.05,2.91,2.91,0,0,1,1.57.29L542.88,298c2.08,1.32,3.2,2.78,3.33,4.37a4.18,4.18,0,0,1,0,1.27Z" transform="translate(-44.58 -250.42)"/><path class="cls-1" d="M472.08,255.69a7.81,7.81,0,0,1,6.61-4.82l4.89-.43a2.23,2.23,0,0,1,2.73,2.3,3.72,3.72,0,0,1-.4,1.88L424.74,374.34a7.8,7.8,0,0,1-6.61,4.82l-4.89.43a2.23,2.23,0,0,1-2.73-2.3,3.83,3.83,0,0,1,.4-1.88Z" transform="translate(-44.58 -250.42)"/><rect class="cls-1" x="271.61" y="10.56" width="93.24" height="90.84" rx="15"/><text class="cls-2" transform="translate(81.78 86.4)">Sans</text><text class="cls-3" transform="translate(279.52 87.21)">UI</text></svg>