<svg id="Layer_1" data-name="Layer 1" xmlns="http://www.w3.org/2000/svg" viewBox="0 0 600 600"><defs><style>.cls-1{fill:none;}.cls-2{fill:#8f00ff;}.cls-3{fill:#fff;}</style></defs><rect class="cls-1" width="600" height="600"/><rect class="cls-2" x="58.12" y="161.58" width="357.12" height="271.22" rx="15"/><path class="cls-3" d="M100.89,390.41V220.31h52.34q22.43,0,40.13,10.1A70.5,70.5,0,0,1,221,259.15q9.93,18.64,9.93,42.35v7.83q0,23.71-9.75,42.18a70,70,0,0,1-27.52,28.62q-17.76,10.17-40.07,10.28ZM135.94,248.7V362.26h16.94q20.55,0,31.43-13.44t11.09-38.44v-9q0-26-10.74-39.32T153.23,248.7Z"/><path class="cls-3" d="M256.39,390.41V220.31H316q31,0,47,11.86t16,34.75a38.47,38.47,0,0,1-6.42,22,37.09,37.09,0,0,1-17.88,13.95q13.08,3.28,20.62,13.21t7.54,24.3q0,24.52-15.65,37.15t-44.63,12.85Zm35.05-98.84h25.93q26.53-.46,26.53-21.14,0-11.56-6.72-16.65T316,248.7H291.44Zm0,24.77v45.92h30q12.38,0,19.33-5.9t6.95-16.3q0-23.37-24.18-23.72Z"/><path class="cls-3" d="M502.28,438.42l-26.34-13.78,6.28-11.34q11.68-21.29,12-42.39V331.83h42.56l-.17,34.89q-.18,19.36-9.77,39.08A100.31,100.31,0,0,1,502.28,438.42ZM484.84,207.1q0-12,8.11-19.54t20.32-7.5q12.39,0,20.5,7.5t8.11,19.54q0,11.86-8,19.28t-20.59,7.41q-12.39,0-20.41-7.41T484.84,207.1Z"/></svg>