<svg id="Layer_1" data-name="Layer 1" xmlns="http://www.w3.org/2000/svg" viewBox="0 0 468 135.13"><defs><style>.cls-1{fill:none;}.cls-2{fill:#fff;}.cls-3{fill:#8f00ff;}</style></defs><rect class="cls-1" width="468" height="135.13"/><path class="cls-2" d="M7.55,75.47a5.54,5.54,0,0,1,1.26-2.89,18.55,18.55,0,0,1,3-2.79L56.59,37.66a2.64,2.64,0,0,1,1.34-.5,2.18,2.18,0,0,1,1.81.6,2.1,2.1,0,0,1,.54,1.85l-1,6.92a6.26,6.26,0,0,1-1.49,3.16,17,17,0,0,1-3.15,2.81L18.86,78.27,49.15,98.11c2.48,1.55,3.56,3.31,3.22,5.28l-.47,4.72a3.17,3.17,0,0,1-1.08,2,3,3,0,0,1-1.93.93,2,2,0,0,1-1.28-.27L10,85.88a6.74,6.74,0,0,1-2.45-2.19,4.75,4.75,0,0,1-.63-2.85Z"/><path class="cls-2" d="M462.78,65.25a5.6,5.6,0,0,1-1.13,3,16.42,16.42,0,0,1-3,2.67l-44.75,32.12a3.24,3.24,0,0,1-1.47.51,2.12,2.12,0,0,1-1.81-.6,2.36,2.36,0,0,1-.41-1.86l.79-6.77q.48-3.08,4.76-6l36.13-25.81L421.27,42.22c-2.49-1.55-3.6-3.3-3.35-5.26l.62-4.36a2.85,2.85,0,0,1,.84-2,3.51,3.51,0,0,1,2.06-.94,2.7,2.7,0,0,1,1.4.26l37.64,24.88c1.87,1.19,2.86,2.49,3,3.91a4,4,0,0,1,0,1.14Z"/><path class="cls-3" d="M397.16,17a7,7,0,0,1,5.92-4.31l4.37-.39a2,2,0,0,1,2.44,2.06,3.45,3.45,0,0,1-.36,1.68L354.82,123.16a7,7,0,0,1-5.91,4.31l-4.37.39a2,2,0,0,1-2.45-2.06,3.43,3.43,0,0,1,.36-1.68Z"/><rect class="cls-3" x="249.8" y="29.47" width="83.39" height="81.25" rx="15"/><path class="cls-2" d="M111,83.94a5.38,5.38,0,0,0-2.1-4.57A27.65,27.65,0,0,0,101.33,76a53.87,53.87,0,0,1-8.64-3.48Q84,67.84,84,59.89a12.27,12.27,0,0,1,2.33-7.37A15.21,15.21,0,0,1,93,47.47a25.07,25.07,0,0,1,9.78-1.82,22.86,22.86,0,0,1,9.73,2,15.42,15.42,0,0,1,6.64,5.58,14.63,14.63,0,0,1,2.36,8.19H111A6.85,6.85,0,0,0,108.82,56a9,9,0,0,0-6.19-2,9.74,9.74,0,0,0-6,1.63,5.14,5.14,0,0,0-2.13,4.29A4.91,4.91,0,0,0,97,64.09a28.37,28.37,0,0,0,7.37,3.15q9,2.7,13.05,6.69a13.31,13.31,0,0,1,4.1,9.94,12.24,12.24,0,0,1-5,10.37q-5,3.77-13.47,3.77a25.94,25.94,0,0,1-10.71-2.16A16.94,16.94,0,0,1,85,90a15.12,15.12,0,0,1-2.54-8.68H93q0,8.43,10.08,8.43a9.82,9.82,0,0,0,5.84-1.52A5,5,0,0,0,111,83.94Z"/><path class="cls-2" d="M149.91,97.31a11.41,11.41,0,0,1-1-3.4,12.25,12.25,0,0,1-9.56,4.1,13.47,13.47,0,0,1-9.22-3.22,10.37,10.37,0,0,1-3.66-8.12,10.68,10.68,0,0,1,4.47-9.24q4.45-3.23,12.89-3.26h4.66V72a6.23,6.23,0,0,0-1.35-4.2,5.3,5.3,0,0,0-4.25-1.57,6.06,6.06,0,0,0-4,1.22,4.16,4.16,0,0,0-1.45,3.36H127.3a10.2,10.2,0,0,1,2-6.09,13.51,13.51,0,0,1,5.74-4.39,21,21,0,0,1,8.33-1.59q7,0,11.11,3.51t4.12,9.89V88.56q0,5.39,1.5,8.15v.6Zm-8.36-7a8.66,8.66,0,0,0,4.13-1,6.53,6.53,0,0,0,2.8-2.67V80.09H144.7q-7.6,0-8.09,5.25l0,.59a4.05,4.05,0,0,0,1.33,3.12A5.18,5.18,0,0,0,141.55,90.27Z"/><path class="cls-2" d="M175.71,59.44l.31,4.37a13.24,13.24,0,0,1,10.89-5.07q6,0,9,3.53t3,10.57V97.31H188.76V73.09q0-3.23-1.4-4.68c-.93-1-2.48-1.45-4.65-1.45a7,7,0,0,0-6.41,3.64V97.31H166.19V59.44Z"/><path class="cls-2" d="M227.05,86.84a3.25,3.25,0,0,0-1.84-2.92A20.87,20.87,0,0,0,219.32,82q-13.51-2.83-13.51-11.48A10.41,10.41,0,0,1,210,62.11q4.19-3.37,10.94-3.37,7.2,0,11.53,3.39A10.72,10.72,0,0,1,236.78,71H226.67a4.93,4.93,0,0,0-1.4-3.59A6,6,0,0,0,220.89,66a6,6,0,0,0-3.95,1.15,3.63,3.63,0,0,0-1.4,2.94,3.1,3.1,0,0,0,1.59,2.71,16.25,16.25,0,0,0,5.37,1.79,43.76,43.76,0,0,1,6.37,1.7q8,2.94,8,10.18a9.87,9.87,0,0,1-4.45,8.38Q228,98,221,98a20,20,0,0,1-8.45-1.7,14.12,14.12,0,0,1-5.79-4.66,10.81,10.81,0,0,1-2.1-6.38h9.59a5.27,5.27,0,0,0,2,4.13,8,8,0,0,0,5,1.43,7.34,7.34,0,0,0,4.39-1.1A3.45,3.45,0,0,0,227.05,86.84Z"/><path class="cls-2" d="M300,47.07V80.63q0,8.37-5.23,13.23t-14.3,4.86q-8.93,0-14.18-4.72t-5.35-13V47.07h10.5V80.7q0,5,2.4,7.3a9.18,9.18,0,0,0,6.63,2.29q8.85,0,9-9.31V47.07Z"/><path class="cls-2" d="M319.77,98h-10.5V47.07h10.5Z"/></svg>