<svg id="Layer_1" data-name="Layer 1" xmlns="http://www.w3.org/2000/svg" viewBox="0 0 332.87 135.13"><defs><style>.cls-1{fill:none;}.cls-2{fill:#8f00ff;}.cls-3{fill:#fff;}</style></defs><rect class="cls-1" width="332.87" height="135.13"/><rect class="cls-2" x="177.66" y="26.1" width="106.99" height="81.25" rx="15"/><path class="cls-3" d="M38.85,80.56A5.41,5.41,0,0,0,36.75,76a27.39,27.39,0,0,0-7.56-3.35,53.4,53.4,0,0,1-8.65-3.49q-8.67-4.68-8.68-12.63a12.34,12.34,0,0,1,2.33-7.37,15.2,15.2,0,0,1,6.69-5.06,25.18,25.18,0,0,1,9.78-1.82,22.89,22.89,0,0,1,9.73,2A15.52,15.52,0,0,1,47,49.83,14.68,14.68,0,0,1,49.38,58H38.88a6.87,6.87,0,0,0-2.2-5.44,9.1,9.1,0,0,0-6.2-1.94,9.64,9.64,0,0,0-6,1.63,5.11,5.11,0,0,0-2.14,4.28,4.93,4.93,0,0,0,2.51,4.17,28.13,28.13,0,0,0,7.36,3.15q9,2.68,13.06,6.68a13.32,13.32,0,0,1,4.09,9.94,12.28,12.28,0,0,1-5,10.38q-5,3.76-13.48,3.76a26.1,26.1,0,0,1-10.71-2.15,16.93,16.93,0,0,1-7.36-5.9,15,15,0,0,1-2.54-8.68H20.82q0,8.44,10.08,8.44a9.85,9.85,0,0,0,5.85-1.52A5,5,0,0,0,38.85,80.56Z"/><path class="cls-3" d="M77.77,93.93a11.13,11.13,0,0,1-1-3.39,12.22,12.22,0,0,1-9.55,4.09A13.45,13.45,0,0,1,58,91.41a10.36,10.36,0,0,1-3.65-8.12,10.7,10.7,0,0,1,4.46-9.24q4.45-3.21,12.9-3.25h4.65V68.63A6.23,6.23,0,0,0,75,64.43a5.28,5.28,0,0,0-4.25-1.58,6,6,0,0,0-4,1.23,4.19,4.19,0,0,0-1.45,3.36H55.16a10.11,10.11,0,0,1,2-6.09A13.32,13.32,0,0,1,62.93,57a20.76,20.76,0,0,1,8.33-1.6q7,0,11.11,3.52t4.11,9.89V85.18c0,3.6.53,6.31,1.51,8.16v.59Zm-8.37-7a8.66,8.66,0,0,0,4.13-1,6.55,6.55,0,0,0,2.8-2.68V76.71H72.55Q65,76.71,64.47,82l0,.6a4,4,0,0,0,1.33,3.11A5.16,5.16,0,0,0,69.4,86.9Z"/><path class="cls-3" d="M103.56,56.06l.32,4.38a13.22,13.22,0,0,1,10.88-5.08q6,0,9,3.54t3,10.57V93.93H116.62V69.71q0-3.21-1.4-4.67t-4.66-1.45a6.94,6.94,0,0,0-6.4,3.64v26.7H94V56.06Z"/><path class="cls-3" d="M154.9,83.47a3.25,3.25,0,0,0-1.83-2.92,20.63,20.63,0,0,0-5.9-1.91q-13.51-2.83-13.51-11.48a10.4,10.4,0,0,1,4.18-8.42q4.18-3.37,10.94-3.38,7.22,0,11.53,3.4a10.69,10.69,0,0,1,4.32,8.82H154.52a4.92,4.92,0,0,0-1.4-3.59,5.94,5.94,0,0,0-4.38-1.42,6,6,0,0,0-4,1.16,3.66,3.66,0,0,0-1.4,2.94A3.12,3.12,0,0,0,145,69.38a16.57,16.57,0,0,0,5.38,1.79,43.7,43.7,0,0,1,6.36,1.69q8,2.94,8,10.19a9.87,9.87,0,0,1-4.45,8.38q-4.44,3.21-11.47,3.2a20.06,20.06,0,0,1-8.46-1.69,14.28,14.28,0,0,1-5.79-4.66,10.81,10.81,0,0,1-2.1-6.39h9.59a5.25,5.25,0,0,0,2,4.13,7.87,7.87,0,0,0,5,1.44,7.36,7.36,0,0,0,4.39-1.1A3.44,3.44,0,0,0,154.9,83.47Z"/><path class="cls-3" d="M190.47,94.65v-51h15.68a23.77,23.77,0,0,1,12,3,21.08,21.08,0,0,1,8.28,8.61,26.59,26.59,0,0,1,3,12.69v2.34A26.64,26.64,0,0,1,226.5,83a20.94,20.94,0,0,1-8.24,8.57,24,24,0,0,1-12,3.08ZM201,52.2v34h5.08q6.15,0,9.41-4t3.33-11.51V68q0-7.77-3.22-11.78t-9.42-4Z"/><path class="cls-3" d="M237.05,94.65v-51H254.9q9.28,0,14.07,3.55t4.8,10.42a11.45,11.45,0,0,1-1.93,6.59,11.12,11.12,0,0,1-5.35,4.19,10.78,10.78,0,0,1,6.18,4,11.71,11.71,0,0,1,2.25,7.28q0,7.35-4.69,11.13t-13.37,3.85ZM247.55,65h7.77q7.95-.14,7.95-6.33c0-2.31-.67-4-2-5s-3.46-1.52-6.36-1.52h-7.35Zm0,7.42V86.22h9a8.67,8.67,0,0,0,5.79-1.77,6.06,6.06,0,0,0,2.08-4.88q0-7-7.24-7.11Z"/><path class="cls-3" d="M310.72,109l-7.89-4.13,1.88-3.39a27.22,27.22,0,0,0,3.6-12.7V77.1h12.76L321,87.55a27.18,27.18,0,0,1-2.92,11.71A30.13,30.13,0,0,1,310.72,109Zm-5.23-69.3a7.61,7.61,0,0,1,2.43-5.85,9.43,9.43,0,0,1,12.23,0,7.61,7.61,0,0,1,2.43,5.85,7.51,7.51,0,0,1-2.4,5.78A8.75,8.75,0,0,1,314,47.73a8.65,8.65,0,0,1-6.11-2.22A7.49,7.49,0,0,1,305.49,39.73Z"/></svg>