<svg id="Layer_1" data-name="Layer 1" xmlns="http://www.w3.org/2000/svg" viewBox="0 0 312.29 82.93"><defs><style>.cls-1{fill:#8f00ff;}.cls-2{fill:#fff;}</style></defs><rect class="cls-1" x="167.37" width="106.99" height="81.25" rx="15"/><path class="cls-2" d="M172.83,312.58a5.38,5.38,0,0,0-2.1-4.56,27.34,27.34,0,0,0-7.56-3.36,53,53,0,0,1-8.65-3.49q-8.67-4.68-8.68-12.63a12.34,12.34,0,0,1,2.33-7.37,15.23,15.23,0,0,1,6.68-5.06,25.27,25.27,0,0,1,9.79-1.82,22.89,22.89,0,0,1,9.73,2,15.58,15.58,0,0,1,6.63,5.58,14.68,14.68,0,0,1,2.36,8.19h-10.5a6.87,6.87,0,0,0-2.2-5.44,9.1,9.1,0,0,0-6.2-1.94,9.62,9.62,0,0,0-6,1.63,5.11,5.11,0,0,0-2.14,4.28,4.94,4.94,0,0,0,2.5,4.17,28.37,28.37,0,0,0,7.37,3.15q9,2.7,13.06,6.68a13.32,13.32,0,0,1,4.09,9.94,12.28,12.28,0,0,1-5,10.38q-5,3.76-13.48,3.76a25.94,25.94,0,0,1-10.71-2.15,17,17,0,0,1-7.37-5.9,15.1,15.1,0,0,1-2.53-8.68H154.8q0,8.44,10.08,8.44a9.85,9.85,0,0,0,5.85-1.52A5,5,0,0,0,172.83,312.58Z" transform="translate(-144.27 -258.12)"/><path class="cls-2" d="M211.75,326a11.13,11.13,0,0,1-1-3.39,12.22,12.22,0,0,1-9.55,4.09,13.45,13.45,0,0,1-9.23-3.22,10.36,10.36,0,0,1-3.65-8.12,10.7,10.7,0,0,1,4.46-9.24q4.45-3.21,12.9-3.25h4.65v-2.17a6.23,6.23,0,0,0-1.35-4.2,5.29,5.29,0,0,0-4.25-1.58,6,6,0,0,0-4,1.23,4.19,4.19,0,0,0-1.45,3.36H189.14a10.13,10.13,0,0,1,2-6.09,13.32,13.32,0,0,1,5.74-4.39,20.94,20.94,0,0,1,8.33-1.6q7,0,11.11,3.52t4.11,9.89V317.2c0,3.6.53,6.32,1.51,8.16V326Zm-8.37-7a8.66,8.66,0,0,0,4.13-1,6.55,6.55,0,0,0,2.8-2.68v-6.51h-3.78q-7.59,0-8.08,5.25l0,.6a4,4,0,0,0,1.33,3.11A5.16,5.16,0,0,0,203.38,318.92Z" transform="translate(-144.27 -258.12)"/><path class="cls-2" d="M237.54,288.08l.32,4.38a13.22,13.22,0,0,1,10.88-5.08q6,0,9,3.54t3,10.57V326H250.59V301.73q0-3.21-1.39-4.67t-4.66-1.45a7,7,0,0,0-6.41,3.64V326H228V288.08Z" transform="translate(-144.27 -258.12)"/><path class="cls-2" d="M288.88,315.49a3.25,3.25,0,0,0-1.83-2.92,20.63,20.63,0,0,0-5.9-1.91q-13.51-2.84-13.51-11.48a10.4,10.4,0,0,1,4.18-8.42q4.19-3.37,10.94-3.38,7.22,0,11.53,3.4a10.69,10.69,0,0,1,4.32,8.82H288.5a4.92,4.92,0,0,0-1.4-3.59,5.94,5.94,0,0,0-4.38-1.42,6,6,0,0,0-4,1.16,3.66,3.66,0,0,0-1.4,2.94A3.12,3.12,0,0,0,279,301.4a16.49,16.49,0,0,0,5.37,1.79,43.52,43.52,0,0,1,6.37,1.69q8,2.94,8,10.19a9.86,9.86,0,0,1-4.45,8.38q-4.44,3.21-11.48,3.2a20,20,0,0,1-8.45-1.69,14.28,14.28,0,0,1-5.79-4.66,10.81,10.81,0,0,1-2.1-6.39H276a5.27,5.27,0,0,0,2,4.13,7.91,7.91,0,0,0,5,1.44,7.4,7.4,0,0,0,4.4-1.1A3.44,3.44,0,0,0,288.88,315.49Z" transform="translate(-144.27 -258.12)"/><path class="cls-2" d="M324.45,326.67v-51h15.68a23.77,23.77,0,0,1,12,3,21.08,21.08,0,0,1,8.28,8.61,26.59,26.59,0,0,1,3,12.69v2.34A26.63,26.63,0,0,1,360.48,315a20.94,20.94,0,0,1-8.24,8.57,24,24,0,0,1-12,3.08ZM335,284.22v34H340q6.15,0,9.41-4t3.32-11.51V300q0-7.77-3.22-11.78t-9.41-4Z" transform="translate(-144.27 -258.12)"/><path class="cls-2" d="M371,326.67v-51h17.85q9.28,0,14.07,3.55t4.8,10.42a11.45,11.45,0,0,1-1.93,6.59,11.11,11.11,0,0,1-5.35,4.19,10.78,10.78,0,0,1,6.18,4,11.71,11.71,0,0,1,2.25,7.28q0,7.35-4.69,11.13t-13.37,3.85Zm10.5-29.61h7.77q7.95-.13,7.95-6.33c0-2.31-.67-4-2-5s-3.46-1.52-6.36-1.52h-7.35Zm0,7.42v13.76h9a8.67,8.67,0,0,0,5.79-1.77,6.06,6.06,0,0,0,2.08-4.88q0-7-7.24-7.11Z" transform="translate(-144.27 -258.12)"/><path class="cls-2" d="M444.7,341.05l-7.89-4.13,1.88-3.39a27.22,27.22,0,0,0,3.6-12.7V309.12H455L455,319.57a27.18,27.18,0,0,1-2.92,11.71A30.13,30.13,0,0,1,444.7,341.05Zm-5.23-69.29a7.61,7.61,0,0,1,2.43-5.86,9.47,9.47,0,0,1,12.23,0,7.61,7.61,0,0,1,2.43,5.86,7.49,7.49,0,0,1-2.4,5.77,9.61,9.61,0,0,1-12.29,0A7.49,7.49,0,0,1,439.47,271.76Z" transform="translate(-144.27 -258.12)"/></svg>