<svg id="Layer_1" data-name="Layer 1" xmlns="http://www.w3.org/2000/svg" viewBox="0 0 456.62 115.55"><defs><style>.cls-1,.cls-3{fill:#fff;}.cls-2{fill:#8f00ff;}.cls-3{font-size:71.68px;font-family:Roboto-Bold, Roboto;font-weight:700;}</style></defs><path class="cls-1" d="M337,192.2a5.54,5.54,0,0,1,1.26-2.89,19,19,0,0,1,3-2.8l44.76-32.12a2.58,2.58,0,0,1,1.34-.5,2.14,2.14,0,0,1,1.82.6,2.09,2.09,0,0,1,.53,1.85l-1,6.92a6.18,6.18,0,0,1-1.49,3.16,16.66,16.66,0,0,1-3.15,2.81L348.35,195l30.29,19.84q3.72,2.32,3.23,5.28l-.47,4.72a3.26,3.26,0,0,1-1.09,2,3,3,0,0,1-1.93.93,2,2,0,0,1-1.28-.27l-37.64-24.88a6.7,6.7,0,0,1-2.46-2.19,4.75,4.75,0,0,1-.63-2.85Z" transform="translate(-336.36 -129.05)"/><path class="cls-1" d="M792.27,182a5.46,5.46,0,0,1-1.13,3,16.28,16.28,0,0,1-3,2.67l-44.76,32.13a3.5,3.5,0,0,1-1.47.51,2.18,2.18,0,0,1-1.81-.6,2.36,2.36,0,0,1-.41-1.86l.79-6.77c.33-2.05,1.91-4.05,4.76-6l36.13-25.81L750.76,159q-3.72-2.32-3.35-5.27l.63-4.35a2.78,2.78,0,0,1,.83-2,3.51,3.51,0,0,1,2.06-.94,2.57,2.57,0,0,1,1.4.26L790,171.56c1.87,1.18,2.86,2.49,3,3.91a4,4,0,0,1,0,1.14Z" transform="translate(-336.36 -129.05)"/><path class="cls-2" d="M726.65,133.77a7,7,0,0,1,5.92-4.32l4.37-.38a2,2,0,0,1,2.44,2.06,3.19,3.19,0,0,1-.36,1.67L684.31,239.89a7,7,0,0,1-5.91,4.31l-4.37.38a2,2,0,0,1-2.44-2.06,3.27,3.27,0,0,1,.35-1.67Z" transform="translate(-336.36 -129.05)"/><rect class="cls-2" x="242.93" y="17.15" width="83.39" height="81.25" rx="15"/><text class="cls-3" transform="translate(73.15 84.98)">Sans</text><text class="cls-3" transform="translate(250.01 85.7)">UI</text></svg>