<svg id="Layer_1" data-name="Layer 1" xmlns="http://www.w3.org/2000/svg" viewBox="0 0 600 600"><defs><style>.cls-1{fill:none;}.cls-2{fill:#8f00ff;}.cls-3{font-size:138.12px;fill:#fff;font-family:Roboto-Bold, Roboto;font-weight:700;}</style></defs><rect class="cls-1" width="600" height="600"/><path d="M27.58,295.52A10.79,10.79,0,0,1,30,290a35.37,35.37,0,0,1,5.83-5.39l86.24-61.9a5.08,5.08,0,0,1,2.59-1,4.12,4.12,0,0,1,3.49,1.16,4,4,0,0,1,1,3.56l-2,13.33a12.05,12.05,0,0,1-2.86,6.09,32.5,32.5,0,0,1-6.08,5.41L49.38,300.91l58.35,38.23q7.18,4.49,6.22,10.17l-.9,9.09a6.2,6.2,0,0,1-2.09,3.84,5.76,5.76,0,0,1-3.73,1.79,4,4,0,0,1-2.47-.51L32.23,315.57a12.87,12.87,0,0,1-4.73-4.21,9.15,9.15,0,0,1-1.2-5.5Z"/><path d="M572.35,290.66a10.67,10.67,0,0,1-2.16,5.79,32,32,0,0,1-5.86,5.14L478.09,363.5a6.57,6.57,0,0,1-2.83,1,4.16,4.16,0,0,1-3.49-1.16,4.56,4.56,0,0,1-.8-3.58l1.54-13.05q.93-5.93,9.17-11.52l69.61-49.73-58.92-39.15q-7.19-4.48-6.46-10.15l1.21-8.39a5.41,5.41,0,0,1,1.61-3.79,6.67,6.67,0,0,1,4-1.81,5,5,0,0,1,2.71.49l72.53,47.94q5.39,3.44,5.75,7.54a7.81,7.81,0,0,1,0,2.19Z"/><path class="cls-2" d="M445.92,197.76q3.69-7.63,11.4-8.31l8.41-.74q4.33-.37,4.71,4a6.34,6.34,0,0,1-.69,3.23L364.33,402.24q-3.69,7.63-11.39,8.31l-8.42.74c-2.89.26-4.46-1.07-4.71-4a6.34,6.34,0,0,1,.69-3.23Z"/><rect class="cls-2" x="177.26" y="206.88" width="160.68" height="156.56" rx="15"/><text class="cls-3" transform="translate(190.9 338.97)">UI</text></svg>