<svg id="Layer_1" data-name="Layer 1" xmlns="http://www.w3.org/2000/svg" viewBox="0 0 456.62 115.55"><defs><style>.cls-1{fill:#8f00ff;}.cls-2{fill:#fff;}</style></defs><path d="M72.8,305a5.7,5.7,0,0,1,1.26-2.89,18.71,18.71,0,0,1,3-2.8l44.75-32.12a2.58,2.58,0,0,1,1.34-.5,2.14,2.14,0,0,1,1.82.6,2.09,2.09,0,0,1,.54,1.85l-1,6.92a6.24,6.24,0,0,1-1.48,3.16,16.75,16.75,0,0,1-3.16,2.81L84.12,307.76,114.4,327.6q3.72,2.32,3.23,5.28l-.47,4.72a3.21,3.21,0,0,1-1.09,2,3,3,0,0,1-1.93.93,2,2,0,0,1-1.28-.27L75.22,315.37a6.7,6.7,0,0,1-2.46-2.19,4.68,4.68,0,0,1-.62-2.85Z" transform="translate(-72.12 -241.81)"/><path d="M528,294.74a5.53,5.53,0,0,1-1.12,3,16.72,16.72,0,0,1-3,2.67l-44.76,32.13a3.45,3.45,0,0,1-1.47.51,2.19,2.19,0,0,1-1.81-.6,2.36,2.36,0,0,1-.41-1.86l.79-6.77c.33-2.05,1.91-4.05,4.77-6L517.1,292l-30.58-20.32c-2.48-1.55-3.6-3.3-3.35-5.27l.63-4.35a2.78,2.78,0,0,1,.83-2,3.51,3.51,0,0,1,2.06-.94,2.57,2.57,0,0,1,1.4.26l37.65,24.88c1.86,1.18,2.86,2.49,3,3.91a4,4,0,0,1,0,1.14Z" transform="translate(-72.12 -241.81)"/><path class="cls-1" d="M462.41,246.53a7,7,0,0,1,5.92-4.32l4.37-.38a2,2,0,0,1,2.44,2.06,3.27,3.27,0,0,1-.35,1.67L420.07,352.65a7,7,0,0,1-5.91,4.31l-4.37.38a2,2,0,0,1-2.44-2.06,3.27,3.27,0,0,1,.35-1.67Z" transform="translate(-72.12 -241.81)"/><rect class="cls-1" x="242.93" y="17.15" width="83.39" height="81.25" rx="15"/><path d="M176.25,313.42a5.38,5.38,0,0,0-2.1-4.56,27.65,27.65,0,0,0-7.56-3.36,54,54,0,0,1-8.65-3.48q-8.69-4.69-8.68-12.64a12.34,12.34,0,0,1,2.33-7.37,15.14,15.14,0,0,1,6.68-5.05,25.08,25.08,0,0,1,9.79-1.82,22.89,22.89,0,0,1,9.73,2,15.54,15.54,0,0,1,6.63,5.59,14.63,14.63,0,0,1,2.36,8.19h-10.5a6.88,6.88,0,0,0-2.2-5.45,9.1,9.1,0,0,0-6.2-1.94,9.62,9.62,0,0,0-6,1.63,5.11,5.11,0,0,0-2.14,4.28,4.94,4.94,0,0,0,2.5,4.17,28.37,28.37,0,0,0,7.37,3.15q9,2.7,13.06,6.68a13.32,13.32,0,0,1,4.09,9.94,12.28,12.28,0,0,1-5,10.38q-5,3.76-13.48,3.76a25.94,25.94,0,0,1-10.71-2.15,17,17,0,0,1-7.37-5.9,15.1,15.1,0,0,1-2.53-8.68h10.53q0,8.44,10.08,8.44a9.85,9.85,0,0,0,5.85-1.52A5,5,0,0,0,176.25,313.42Z" transform="translate(-72.12 -241.81)"/><path d="M215.17,326.79a11.13,11.13,0,0,1-1-3.39,12.22,12.22,0,0,1-9.55,4.09,13.45,13.45,0,0,1-9.23-3.22,10.33,10.33,0,0,1-3.65-8.12,10.7,10.7,0,0,1,4.46-9.24q4.45-3.21,12.9-3.25h4.65v-2.17a6.23,6.23,0,0,0-1.35-4.2,5.29,5.29,0,0,0-4.25-1.57,6,6,0,0,0-4,1.22,4.16,4.16,0,0,0-1.45,3.36H192.56a10.13,10.13,0,0,1,2-6.09,13.32,13.32,0,0,1,5.74-4.39,20.94,20.94,0,0,1,8.33-1.6q7,0,11.11,3.52t4.11,9.89V318c0,3.6.53,6.32,1.51,8.16v.59Zm-8.37-7a8.66,8.66,0,0,0,4.13-1,6.55,6.55,0,0,0,2.8-2.68v-6.51H210q-7.59,0-8.08,5.25l0,.6a4,4,0,0,0,1.33,3.11A5.16,5.16,0,0,0,206.8,319.76Z" transform="translate(-72.12 -241.81)"/><path d="M241,288.93l.31,4.37a13.25,13.25,0,0,1,10.89-5.08q6,0,9,3.54t3,10.57v24.46H254V302.58c0-2.15-.46-3.71-1.4-4.68s-2.48-1.45-4.65-1.45a7,7,0,0,0-6.41,3.64v26.7H231.44V288.93Z" transform="translate(-72.12 -241.81)"/><path d="M292.3,316.33a3.25,3.25,0,0,0-1.83-2.92,21,21,0,0,0-5.9-1.91q-13.51-2.83-13.51-11.48a10.4,10.4,0,0,1,4.18-8.42q4.18-3.37,10.94-3.38,7.21,0,11.53,3.4a10.69,10.69,0,0,1,4.32,8.82H291.92a4.92,4.92,0,0,0-1.4-3.59,6,6,0,0,0-4.38-1.42,6,6,0,0,0-3.95,1.16,3.66,3.66,0,0,0-1.4,2.94,3.12,3.12,0,0,0,1.59,2.71,16.25,16.25,0,0,0,5.37,1.79,43.52,43.52,0,0,1,6.37,1.69q8,2.94,8,10.19a9.86,9.86,0,0,1-4.45,8.38q-4.44,3.21-11.48,3.2a20,20,0,0,1-8.45-1.69,14.2,14.2,0,0,1-5.79-4.66,10.81,10.81,0,0,1-2.1-6.39h9.59a5.27,5.27,0,0,0,2,4.13,7.91,7.91,0,0,0,5,1.44,7.4,7.4,0,0,0,4.4-1.1A3.44,3.44,0,0,0,292.3,316.33Z" transform="translate(-72.12 -241.81)"/><path class="cls-2" d="M365.25,276.55v33.57q0,8.36-5.23,13.23t-14.3,4.86q-8.93,0-14.17-4.72t-5.36-13V276.55h10.5v33.64c0,3.33.8,5.77,2.4,7.29a9.2,9.2,0,0,0,6.63,2.3q8.85,0,9-9.31V276.55Z" transform="translate(-72.12 -241.81)"/><path class="cls-2" d="M385,327.51h-10.5v-51H385Z" transform="translate(-72.12 -241.81)"/></svg>