<svg id="Layer_1" data-name="Layer 1" xmlns="http://www.w3.org/2000/svg" viewBox="0 0 456.62 115.55"><defs><style>.cls-1{fill:#8f00ff;}.cls-2,.cls-3{font-size:71.68px;font-family:Roboto-Bold, Roboto;font-weight:700;}.cls-3{fill:#fff;}</style></defs><path d="M402.91,364.51a5.7,5.7,0,0,1,1.26-2.89,18.25,18.25,0,0,1,3-2.79L452,326.7a2.67,2.67,0,0,1,1.34-.5,2.2,2.2,0,0,1,1.82.6,2.1,2.1,0,0,1,.54,1.85l-1,6.92a6.24,6.24,0,0,1-1.48,3.16,16.75,16.75,0,0,1-3.16,2.81l-35.74,25.77,30.28,19.84q3.72,2.33,3.23,5.28l-.47,4.72a3.14,3.14,0,0,1-1.09,2,3,3,0,0,1-1.93.93,2,2,0,0,1-1.28-.27l-37.64-24.88a6.7,6.7,0,0,1-2.46-2.19,4.68,4.68,0,0,1-.62-2.85Z" transform="translate(-402.23 -301.37)"/><path d="M858.14,354.29a5.56,5.56,0,0,1-1.12,3,16.72,16.72,0,0,1-3,2.67l-44.76,32.12a3.21,3.21,0,0,1-1.46.51,2.14,2.14,0,0,1-1.82-.6,2.4,2.4,0,0,1-.41-1.86l.79-6.77c.33-2.05,1.91-4,4.77-6l36.12-25.8-30.58-20.32c-2.48-1.56-3.6-3.31-3.35-5.27l.63-4.35a2.76,2.76,0,0,1,.83-2,3.45,3.45,0,0,1,2.06-.94,2.56,2.56,0,0,1,1.4.25l37.65,24.88c1.86,1.19,2.86,2.49,3,3.91a4,4,0,0,1,0,1.14Z" transform="translate(-402.23 -301.37)"/><path class="cls-1" d="M792.53,306.08a7,7,0,0,1,5.91-4.31l4.37-.39a2,2,0,0,1,2.44,2.06,3.32,3.32,0,0,1-.35,1.68L750.19,412.2a7,7,0,0,1-5.92,4.31l-4.37.39a2,2,0,0,1-2.44-2.06,3.3,3.3,0,0,1,.35-1.68Z" transform="translate(-402.23 -301.37)"/><rect class="cls-1" x="242.93" y="17.15" width="83.39" height="81.25" rx="15"/><text class="cls-2" transform="translate(73.15 84.98)">Sans</text><text class="cls-3" transform="translate(250.01 85.7)">UI</text></svg>