<svg id="Layer_1" data-name="Layer 1" xmlns="http://www.w3.org/2000/svg" viewBox="0 0 419.48 135.13"><defs><style>.cls-1{fill:none;}.cls-2{fill:#8f00ff;}.cls-3{fill:#fff;}</style></defs><rect class="cls-1" width="419.48" height="135.13"/><rect class="cls-2" x="227.52" y="25.74" width="132.44" height="81.25" rx="15"/><path d="M88.71,80.2a5.38,5.38,0,0,0-2.1-4.56,27.34,27.34,0,0,0-7.56-3.36,52.86,52.86,0,0,1-8.64-3.49q-8.68-4.68-8.68-12.63a12.33,12.33,0,0,1,2.32-7.37,15.11,15.11,0,0,1,6.69-5,25,25,0,0,1,9.78-1.83,22.89,22.89,0,0,1,9.73,2,15.42,15.42,0,0,1,6.63,5.59,14.54,14.54,0,0,1,2.36,8.18H88.74a6.87,6.87,0,0,0-2.2-5.44,9.1,9.1,0,0,0-6.2-1.94,9.64,9.64,0,0,0-6,1.63,5.13,5.13,0,0,0-2.13,4.29,4.91,4.91,0,0,0,2.5,4.16,28.28,28.28,0,0,0,7.36,3.15q9,2.7,13.06,6.68a13.32,13.32,0,0,1,4.09,9.94,12.26,12.26,0,0,1-5,10.38q-5,3.76-13.48,3.76a25.86,25.86,0,0,1-10.7-2.15,16.83,16.83,0,0,1-7.37-5.9,15.1,15.1,0,0,1-2.54-8.68H70.69Q70.69,86,80.76,86a9.85,9.85,0,0,0,5.85-1.52A5,5,0,0,0,88.71,80.2Z"/><path d="M127.63,93.57a11.13,11.13,0,0,1-1-3.39,12.22,12.22,0,0,1-9.55,4.09,13.41,13.41,0,0,1-9.22-3.22,10.34,10.34,0,0,1-3.66-8.12,10.72,10.72,0,0,1,4.46-9.24q4.47-3.21,12.9-3.25h4.65V68.27a6.28,6.28,0,0,0-1.34-4.2,5.32,5.32,0,0,0-4.26-1.58,6,6,0,0,0-4,1.23,4.17,4.17,0,0,0-1.46,3.36H105a10.2,10.2,0,0,1,2-6.09,13.38,13.38,0,0,1,5.74-4.39,20.94,20.94,0,0,1,8.33-1.6q7,0,11.11,3.52t4.11,9.89V84.82q0,5.4,1.51,8.16v.59Zm-8.37-7a8.64,8.64,0,0,0,4.13-1,6.49,6.49,0,0,0,2.8-2.68V76.35h-3.78q-7.59,0-8.08,5.25l0,.6a4.05,4.05,0,0,0,1.33,3.11A5.16,5.16,0,0,0,119.26,86.54Z"/><path d="M153.42,55.7l.32,4.38A13.22,13.22,0,0,1,164.62,55q6,0,9,3.54t3,10.57V93.57H166.48V69.35q0-3.21-1.4-4.67t-4.66-1.45a7,7,0,0,0-6.4,3.64v26.7H143.9V55.7Z"/><path d="M204.77,83.11a3.26,3.26,0,0,0-1.84-2.92,21,21,0,0,0-5.9-1.91q-13.5-2.84-13.51-11.48a10.41,10.41,0,0,1,4.19-8.42Q191.88,55,198.64,55q7.22,0,11.53,3.4a10.68,10.68,0,0,1,4.33,8.82H204.38a4.88,4.88,0,0,0-1.4-3.59,5.93,5.93,0,0,0-4.37-1.42,6.05,6.05,0,0,0-4,1.16,3.66,3.66,0,0,0-1.4,2.94A3.12,3.12,0,0,0,194.84,69a16.41,16.41,0,0,0,5.38,1.79,43.87,43.87,0,0,1,6.37,1.69q8,2.94,8,10.19a9.88,9.88,0,0,1-4.44,8.38q-4.46,3.21-11.48,3.2a20.09,20.09,0,0,1-8.46-1.69,14.2,14.2,0,0,1-5.79-4.66,10.81,10.81,0,0,1-2.1-6.39h9.59a5.28,5.28,0,0,0,2,4.13,7.87,7.87,0,0,0,5,1.44,7.36,7.36,0,0,0,4.39-1.1A3.45,3.45,0,0,0,204.77,83.11Z"/><path class="cls-3" d="M269.1,83.79H250.69l-3.5,10.5H236l19-51h9.73l19.07,51H272.64Zm-15.57-8.5h12.74l-6.41-19.08Z"/><path class="cls-3" d="M299.06,76.34v18h-10.5v-51h19.88a23,23,0,0,1,10.1,2.1,15.47,15.47,0,0,1,6.7,6,16.67,16.67,0,0,1,2.35,8.8q0,7.5-5.13,11.81t-14.19,4.33Zm0-8.51h9.38c2.78,0,4.89-.65,6.35-2a7.11,7.11,0,0,0,2.19-5.6,8.4,8.4,0,0,0-2.2-6.05,8.21,8.21,0,0,0-6.09-2.38h-9.63Z"/><path class="cls-3" d="M346,94.29h-10.5v-51H346Z"/><path d="M36,118.7q-18.82-5.28-18.82-24.3V84q0-11-9.3-11V62.16q9.09,0,9.3-10.4V40.68q0-9.68,4.71-15.63T36,16.43l2.92,8.41a11.11,11.11,0,0,0-6,5.1q-2,3.63-2.14,10.06V51q0,11.82-9.35,16.57,9.34,4.8,9.35,16.67V95.29q.26,12.22,8.15,14.95Z"/><path d="M381.1,110.24q7.89-2.73,8.15-14.95V84.21q0-11.86,9.35-16.67-9.35-4.76-9.35-16.57V40q-.11-6.44-2.14-10.06a11.08,11.08,0,0,0-6-5.1L384,16.43q9.41,2.67,14.11,8.62t4.71,15.63V51.76q.21,10.4,9.3,10.4V73q-9.3,0-9.3,11V94.4q0,19-18.82,24.3Z"/></svg>