<svg id="Layer_1" data-name="Layer 1" xmlns="http://www.w3.org/2000/svg" viewBox="0 0 600 600"><defs><style>.cls-1{fill:none;}.cls-2{fill:#8f00ff;}.cls-3{fill:#fff;}</style></defs><rect class="cls-1" width="600" height="600"/><rect class="cls-1" width="600" height="600"/><rect class="cls-1" width="600" height="600"/><rect class="cls-2" x="144.5" y="203.52" width="314.51" height="192.95" rx="15"/><path class="cls-3" d="M243.25,341.38H199.53l-8.31,24.94H164.71l45-121h23.11l45.3,121H251.64Zm-37-20.19h30.26l-15.21-45.3Z"/><path class="cls-3" d="M314.39,323.68v42.64H289.46v-121h47.21q13.63,0,24,5a36.78,36.78,0,0,1,15.92,14.17,39.52,39.52,0,0,1,5.56,20.9q0,17.79-12.17,28.05t-33.71,10.27Zm0-20.2h22.28q9.88,0,15.09-4.65t5.19-13.3q0-8.89-5.24-14.38t-14.46-5.65H314.39Z"/><path class="cls-3" d="M425.77,366.32H400.83v-121h24.94Z"/><path class="cls-3" d="M83.84,421.44Q39.15,408.9,39.16,363.73V339q0-26.19-22.09-26.18v-25.7q21.6,0,22.09-24.69V236.15q0-23,11.17-37.11t33.51-20.48l7,20a26.22,26.22,0,0,0-14.27,12.1q-4.84,8.64-5.09,23.89V260.6q0,28-22.22,39.34,22.21,11.42,22.22,39.59v26.31q.61,29,19.36,35.49Z"/><path class="cls-3" d="M509.21,401.33q18.74-6.45,19.36-35.49V339.53q0-28.17,22.22-39.59-22.21-11.29-22.22-39.34V234.53q-.24-15.25-5.09-23.89a26.22,26.22,0,0,0-14.27-12.1l6.95-20q22.33,6.33,33.51,20.48t11.17,37.11v26.31q.49,24.69,22.09,24.69v25.7q-22.09,0-22.09,26.18v24.7q0,45.18-44.68,57.71Z"/></svg>