<svg id="Layer_1" data-name="Layer 1" xmlns="http://www.w3.org/2000/svg" viewBox="0 0 404.28 102.27"><defs><style>.cls-1{fill:#8f00ff;}.cls-2{fill:#fff;}</style></defs><rect class="cls-1" x="219.66" y="9.31" width="132.44" height="81.25" rx="15"/><path class="cls-2" d="M179.12,312.22a5.38,5.38,0,0,0-2.1-4.56,27.65,27.65,0,0,0-7.56-3.36,53.87,53.87,0,0,1-8.64-3.48q-8.69-4.69-8.68-12.64a12.27,12.27,0,0,1,2.33-7.37,15.21,15.21,0,0,1,6.68-5.05,25.07,25.07,0,0,1,9.78-1.82,23,23,0,0,1,9.73,2,15.51,15.51,0,0,1,6.64,5.59,14.63,14.63,0,0,1,2.36,8.19h-10.5a6.89,6.89,0,0,0-2.21-5.45,9.07,9.07,0,0,0-6.19-1.94,9.67,9.67,0,0,0-6,1.63,5.13,5.13,0,0,0-2.13,4.29,4.91,4.91,0,0,0,2.5,4.16,28.37,28.37,0,0,0,7.37,3.15q9,2.7,13.05,6.69a13.31,13.31,0,0,1,4.1,9.94,12.26,12.26,0,0,1-5,10.37c-3.33,2.51-7.83,3.77-13.47,3.77a25.94,25.94,0,0,1-10.71-2.16,16.94,16.94,0,0,1-7.37-5.89,15.12,15.12,0,0,1-2.54-8.68H161.1q0,8.43,10.08,8.43a9.82,9.82,0,0,0,5.84-1.52A5,5,0,0,0,179.12,312.22Z" transform="translate(-98.27 -248.45)"/><path class="cls-2" d="M218,325.59a11.43,11.43,0,0,1-1-3.39,12.25,12.25,0,0,1-9.56,4.1,13.47,13.47,0,0,1-9.22-3.22,10.37,10.37,0,0,1-3.66-8.12,10.68,10.68,0,0,1,4.47-9.24q4.45-3.23,12.89-3.26h4.66v-2.17a6.23,6.23,0,0,0-1.35-4.2,5.3,5.3,0,0,0-4.25-1.57,6,6,0,0,0-4,1.22,4.16,4.16,0,0,0-1.45,3.36H195.43a10.2,10.2,0,0,1,2-6.09,13.44,13.44,0,0,1,5.74-4.39,21,21,0,0,1,8.33-1.59q7,0,11.11,3.51t4.12,9.89v16.41q0,5.4,1.5,8.16v.59Zm-8.36-7a8.66,8.66,0,0,0,4.13-1,6.53,6.53,0,0,0,2.8-2.67v-6.51h-3.78q-7.61,0-8.09,5.25l0,.59a4.05,4.05,0,0,0,1.33,3.12A5.18,5.18,0,0,0,209.68,318.56Z" transform="translate(-98.27 -248.45)"/><path class="cls-2" d="M243.84,287.73l.31,4.37A13.24,13.24,0,0,1,255,287q6,0,9,3.53t3,10.57v24.46H256.89V301.38q0-3.22-1.4-4.68c-.93-1-2.48-1.45-4.65-1.45a7,7,0,0,0-6.41,3.64v26.7H234.32V287.73Z" transform="translate(-98.27 -248.45)"/><path class="cls-2" d="M295.18,315.13a3.24,3.24,0,0,0-1.84-2.92,20.87,20.87,0,0,0-5.89-1.91q-13.51-2.83-13.51-11.48a10.41,10.41,0,0,1,4.18-8.42q4.19-3.37,10.94-3.37,7.2,0,11.53,3.39a10.69,10.69,0,0,1,4.32,8.82H294.8a4.92,4.92,0,0,0-1.4-3.59,6,6,0,0,0-4.38-1.41,6,6,0,0,0-3.95,1.15,3.63,3.63,0,0,0-1.4,2.94,3.12,3.12,0,0,0,1.59,2.71,16.25,16.25,0,0,0,5.37,1.79,43.76,43.76,0,0,1,6.37,1.7q8,2.94,8,10.18a9.88,9.88,0,0,1-4.45,8.38q-4.44,3.21-11.48,3.21a20,20,0,0,1-8.45-1.7,14.2,14.2,0,0,1-5.79-4.66,10.81,10.81,0,0,1-2.1-6.39h9.59a5.24,5.24,0,0,0,2,4.13,7.89,7.89,0,0,0,5,1.44,7.34,7.34,0,0,0,4.39-1.1A3.45,3.45,0,0,0,295.18,315.13Z" transform="translate(-98.27 -248.45)"/><path class="cls-2" d="M359.52,315.81H341.11l-3.5,10.5H326.44l19-51h9.73l19.08,51H363.05Zm-15.58-8.5h12.74l-6.4-19.08Z" transform="translate(-98.27 -248.45)"/><path class="cls-2" d="M389.48,308.36v17.95H379v-51h19.88a23,23,0,0,1,10.09,2.1,15.5,15.5,0,0,1,6.71,6,16.66,16.66,0,0,1,2.34,8.8c0,5-1.71,8.93-5.13,11.82s-8.15,4.32-14.19,4.32Zm0-8.51h9.38q4.15,0,6.35-2a7.11,7.11,0,0,0,2.19-5.6,8.41,8.41,0,0,0-2.21-6.05,8.25,8.25,0,0,0-6.09-2.38h-9.62Z" transform="translate(-98.27 -248.45)"/><path class="cls-2" d="M436.37,326.31h-10.5v-51h10.5Z" transform="translate(-98.27 -248.45)"/><path class="cls-2" d="M126.39,350.72q-18.81-5.28-18.81-24.3V316q0-11-9.31-11V294.18q9.11,0,9.31-10.4V272.7q0-9.68,4.7-15.63t14.11-8.62l2.93,8.41a11.08,11.08,0,0,0-6,5.1q-2,3.63-2.15,10.06v11q0,11.82-9.35,16.57,9.36,4.81,9.35,16.67v11.08q.27,12.22,8.16,14.95Z" transform="translate(-98.27 -248.45)"/><path class="cls-2" d="M471.51,342.26q7.89-2.73,8.15-14.95V316.23q0-11.87,9.36-16.67-9.36-4.76-9.36-16.57V272q-.11-6.43-2.14-10.06a11.08,11.08,0,0,0-6-5.1l2.93-8.41q9.4,2.67,14.11,8.62t4.7,15.63v11.08q.21,10.39,9.3,10.4V305q-9.3,0-9.3,11v10.4q0,19-18.81,24.3Z" transform="translate(-98.27 -248.45)"/></svg>